<svg data-name="Layer 1" xmlns="http://www.w3.org/2000/svg" width="864.67004" height="685.07844" viewBox="0 0 864.67004 685.07844" xmlns:xlink="http://www.w3.org/1999/xlink"><path d="M268.97109,622.8a3.61324,3.61324,0,0,1-2.61865-6.26263c.09111-.36213.15647-.62217.24758-.9843q-.0489-.11821-.09838-.23627a9.7031,9.7031,0,0,0-17.89848.06652c-2.92739,7.05051-6.65447,14.11306-7.57217,21.56779a28.7057,28.7057,0,0,0,.50391,9.87235A115.08618,115.08618,0,0,1,231.066,599.02456a111.07965,111.07965,0,0,1,.689-12.392q.5708-5.05968,1.58377-10.04731a116.41931,116.41931,0,0,1,23.087-49.34152,30.98252,30.98252,0,0,0,12.88556-13.36892,23.63367,23.63367,0,0,0,2.14933-6.45822c-.62729.08228-1.26489.1337-1.89218.1748-.19542.01023-.40108.02054-.5965.03086l-.0737.0033a3.57989,3.57989,0,0,1-2.94009-5.83225q.40627-.5.813-.99948c.4114-.51422.833-1.01813,1.24434-1.53227a1.78518,1.78518,0,0,0,.13369-.15433c.47313-.58619.94609-1.16206,1.41921-1.74825a10.35184,10.35184,0,0,0-3.39366-3.28044c-4.74083-2.77661-11.28133-.85357-14.70586,3.43477-3.43476,4.28825-4.0826,10.30437-2.88976,15.66218a41.48513,41.48513,0,0,0,5.73842,12.793c-.25715.32911-.52454.64791-.78161.977a117.172,117.172,0,0,0-12.22973,19.37481,48.70929,48.70929,0,0,0-2.908-22.62447c-2.78347-6.71479-8.00064-12.37-12.595-18.17495-5.51857-6.9726-16.83488-3.92959-17.80713,4.90927q-.01412.12837-.02757.25666,1.02363.57749,2.004,1.22585a4.9011,4.9011,0,0,1-1.976,8.91908l-.09994.01544a48.767,48.767,0,0,0,1.28544,7.29124,50.20986,50.20986,0,0,0,24.99983,31.46836c.40108.20566.79193.41132,1.193.60674a119.59776,119.59776,0,0,0-6.43767,30.296,113.43513,113.43513,0,0,0,.08228,18.31541l-.03086-.216a29.97411,29.97411,0,0,0-10.23241-17.3076c-7.87438-6.46853-18.9994-8.8505-27.49446-14.04993a5.62528,5.62528,0,0,0-8.61571,5.47251q.01709.11352.03474.227a32.92807,32.92807,0,0,1,3.69184,1.779q1.02362.57761,2.004,1.22586a4.90115,4.90115,0,0,1-1.976,8.91916l-.1.01535c-.072.01032-.13369.02063-.20557.03095a48.80772,48.80772,0,0,0,8.97767,14.05786,50.25445,50.25445,0,0,0,36.44572,15.99129h.01032a119.5619,119.5619,0,0,0,8.03167,23.447h28.69167c.10291-.3188.19542-.64792.288-.96672a32.59875,32.59875,0,0,1-7.93916-.473c2.12878-2.61213,4.25747-5.24482,6.38625-7.85688a1.7799,1.7799,0,0,0,.1337-.15424c1.07978-1.33685,2.16987-2.66347,3.24965-4.00032l.00058-.00165A47.75037,47.75037,0,0,0,268.972,622.8006Z" transform="translate(-167.66498 -107.46078)" fill="#f2f2f2"/><path d="M607.335,648.80514a1.18647,1.18647,0,0,1-1.19006,1.19H168.855a1.19,1.19,0,0,1,0-2.38h437.29A1.18651,1.18651,0,0,1,607.335,648.80514Z" transform="translate(-167.66498 -107.46078)" fill="#ccc"/><!-- trimmed for brevity -->
</svg>