<svg data-name="Layer 1" xmlns="http://www.w3.org/2000/svg" width="717.67003" height="453.96431" viewBox="0 0 717.67003 453.96431" xmlns:xlink="http://www.w3.org/1999/xlink"><path d="M527.60118,309.43775a3.82674,3.82674,0,0,1-4.314,1.25745,5.82854,5.82854,0,0,1-.6787-.24764,28.82552,28.82552,0,0,0-.36725-7.98934,21.36236,21.36236,0,0,1-1.63966,6.57017,8.91079,8.91079,0,0,1-1.75993-2.51274,22.42528,22.42528,0,0,1-1.60307-6.0463c-1.20439-7.0881-2.39281-14.46206-.42756-21.389,2.87885-10.119,11.95723-17.39344,15.74893-27.21118l1.86811-1.677c3.19777,5.44543,3.33934,12.212,2.03576,18.38674-1.29657,6.187-3.90949,11.99371-5.97512,17.96023s-3.61313,12.31309-2.6548,18.55641C528.05421,306.56558,528.39023,308.18131,527.60118,309.43775Z" transform="translate(-255.61478 -237.96119)" fill="#2f2e41"/><!-- trimmed for brevity --></svg>