<svg xmlns="http://www.w3.org/2000/svg" width="774.04004" height="475.1369" viewBox="0 0 774.04004 475.1369" xmlns:xlink="http://www.w3.org/1999/xlink"><path d="M647.79187,389.5H126.24841c-11.15381,0-20.22852-9.07422-20.22852-20.22852v-62.77148H668.02038v62.77148c0,11.1543-9.07422,20.22852-20.22852,20.22852Z" fill="#e6e6e6"/><rect x="321.52002" y="378.99998" width="133" height="95" fill="#e6e6e6"/><rect x="313.52002" y="461.99998" width="149" height="12" fill="#e6e6e6"/><path d="M667.52038,333H106.01989V13.88184c0-7.6543,6.22754-13.88184,13.88184-13.88184H653.63855c7.6543,0,13.88184,6.22754,13.88184,13.88184V333Z" fill="#3f3d56"/><circle cx="388.02002" cy="7.49998" r="4" fill="#fff"/><rect x="119.02002" y="14.49998" width="535" height="301" fill="#fff"/><circle cx="591.40585" cy="196.29643" r="45.61417" fill="#6c63ff"/><path d="M774.04004,474.29687h0c0,.46393-.3761,.84003-.84003,.84003H0v-1.68005H773.20001c.46393,0,.84003,.3761,.84003,.84003Z" fill="#e6e6e6"/><g><polygon points="130.9527 189.66266 125.18911 209.83523 148.24347 211.27612 146.80257 187.50131 130.9527 189.66266" fill="#ffb6b6"/><!-- trimmed for brevity --></svg>